<svg xmlns="http://www.w3.org/2000/svg" viewBox="0 0 32 32" shape-rendering="crispEdges" role="img" aria-label="NhakoSearch">
<path fill="#8fcf9e" d="M2 0L30 0L30 1L31 1L31 2L32 2L32 3L32 3L32 4L32 4L32 5L32 5L32 6L32 6L32 7L32 7L32 8L32 8L32 9L32 9L32 10L32 10L32 11L32 11L32 12L32 12L32 13L32 13L32 14L32 14L32 15L32 15L32 16L32 16L32 17L32 17L32 18L32 18L32 19L32 19L32 20L32 20L32 21L32 21L32 22L32 22L32 23L32 23L32 24L32 24L32 25L32 25L32 26L32 26L32 27L32 27L32 28L32 28L32 29L32 29L32 30L31 30L31 31L30 31L30 32L2 32L2 31L1 31L1 30L0 30L0 29L0 29L0 28L0 28L0 27L0 27L0 26L0 26L0 25L0 25L0 24L0 24L0 23L0 23L0 22L0 22L0 21L0 21L0 20L0 20L0 19L0 19L0 18L0 18L0 17L0 17L0 16L0 16L0 15L0 15L0 14L0 14L0 13L0 13L0 12L0 12L0 11L0 11L0 10L0 10L0 9L0 9L0 8L0 8L0 7L0 7L0 6L0 6L0 5L0 5L0 4L0 4L0 3L0 3L0 2L1 2L1 1L2 1L2 0z"/>
<path fill="#b5e3be" d="M6 1h1v1h-1zM29 4h1v1h-1zM18 5h1v1h-1zM1 8h1v1h-1zM30 12h1v1h-1zM2 30h1v1h-1zM13 30h1v1h-1zM24 30h1v1h-1z"/>
<path fill="#6bb784" d="M15 1h1v1h-1zM17 1h1v1h-1zM2 2h1v1h-1zM4 2h1v1h-1zM16 2h1v1h-1zM3 3h1v1h-1zM9 4h1v1h-1zM11 4h1v1h-1zM10 5h1v1h-1zM29 9h1v1h-1zM31 9h1v1h-1zM30 10h1v1h-1zM1 14h1v1h-1zM30 17h1v1h-1zM31 18h1v1h-1zM29 25h1v1h-1zM28 26h1v1h-1zM22 28h1v1h-1zM11 29h1v1h-1zM13 29h1v1h-1zM21 29h1v1h-1zM12 30h1v1h-1z"/>
<path fill="#4a3a5c" d="M22 1h1v1h-1zM24 1h1v1h-1zM21 2h7v1h-7zM20 3h1v1h-1zM24 3h1v1h-1zM28 3h1v1h-1zM20 4h1v1h-1zM24 4h1v1h-1zM28 4h1v1h-1zM21 5h1v1h-1zM24 5h1v1h-1zM27 5h1v1h-1zM21 6h1v1h-1zM24 6h1v1h-1zM27 6h1v1h-1zM20 7h1v1h-1zM24 7h1v1h-1zM28 7h1v1h-1zM21 8h3v1h-3zM25 8h3v1h-3zM22 9h6v1h-6zM15 10h7v1h-7zM28 10h1v1h-1zM8 11h8v1h-8zM28 11h1v1h-1zM3 12h5v1h-5zM15 12h1v1h-1zM28 12h1v1h-1zM2 13h1v1h-1zM15 13h1v1h-1zM28 13h1v1h-1zM2 14h1v1h-1zM15 14h1v1h-1zM28 14h1v1h-1zM2 15h1v1h-1zM15 15h1v1h-1zM28 15h1v1h-1zM2 16h1v1h-1zM15 16h1v1h-1zM28 16h1v1h-1zM2 17h1v1h-1zM9 17h5v1h-5zM15 17h1v1h-1zM28 17h1v1h-1zM2 18h1v1h-1zM8 18h1v1h-1zM14 18h2v1h-2zM28 18h1v1h-1zM2 19h1v1h-1zM8 19h1v1h-1zM14 19h2v1h-2zM28 19h1v1h-1zM2 20h1v1h-1zM9 20h5v1h-5zM15 20h1v1h-1zM28 20h1v1h-1zM2 21h1v1h-1zM15 21h1v1h-1zM22 21h7v1h-7zM2 22h1v1h-1zM15 22h7v1h-7zM28 22h1v1h-1zM2 23h1v1h-1zM8 23h8v1h-8zM28 23h1v1h-1zM2 24h6v1h-6zM15 24h1v1h-1zM22 24h6v1h-6zM2 25h1v1h-1zM15 25h8v1h-8zM2 26h1v1h-1zM8 26h7v1h-7zM19 26h1v1h-1zM22 26h1v1h-1zM3 27h5v1h-5zM19 27h1v1h-1zM22 27h1v1h-1zM19 28h1v1h-1zM21 28h1v1h-1zM19 29h2v1h-2z"/>
<path fill="#f7a1c4" d="M21 3h3v1h-3zM25 3h3v1h-3zM21 4h1v1h-1zM23 4h1v1h-1zM25 4h1v1h-1zM27 4h1v1h-1zM22 5h2v1h-2zM25 5h2v1h-2zM9 18h1v1h-1zM11 18h3v1h-3zM9 19h5v1h-5z"/>
<path fill="#f49ac1" d="M4 4h1v1h-1zM3 5h1v1h-1zM5 5h1v1h-1zM4 6h1v1h-1zM27 27h1v1h-1zM26 28h1v1h-1zM28 28h1v1h-1zM27 29h1v1h-1z"/>
<path fill="#ffffff" d="M22 4h1v1h-1zM26 4h1v1h-1zM22 10h6v1h-6zM16 11h12v1h-12zM8 12h7v1h-7zM16 12h6v1h-6zM27 12h1v1h-1zM3 13h12v1h-12zM16 13h1v1h-1zM22 13h6v1h-6zM3 14h5v1h-5zM13 14h2v1h-2zM16 14h6v1h-6zM24 14h4v1h-4zM3 15h1v1h-1zM8 15h7v1h-7zM16 15h1v1h-1zM22 15h6v1h-6zM3 16h12v1h-12zM16 16h6v1h-6zM27 16h1v1h-1zM3 17h1v1h-1zM8 17h1v1h-1zM14 17h1v1h-1zM16 17h1v1h-1zM22 17h6v1h-6zM3 18h5v1h-5zM10 18h1v1h-1zM16 18h6v1h-6zM25 18h3v1h-3zM3 19h1v1h-1zM16 19h1v1h-1zM22 19h6v1h-6zM3 20h6v1h-6zM14 20h1v1h-1zM16 20h6v1h-6zM3 21h5v1h-5zM12 21h3v1h-3zM3 22h1v1h-1z"/>
<path fill="#ffd98a" d="M4 5h1v1h-1zM12 6h1v1h-1zM3 28h1v1h-1zM27 28h1v1h-1z"/>
<path fill="#b893ea" d="M12 5h1v1h-1zM11 6h1v1h-1zM13 6h1v1h-1zM12 7h1v1h-1z"/>
<path fill="#c3a6f0" d="M22 6h2v1h-2zM25 6h2v1h-2zM21 7h3v1h-3zM25 7h3v1h-3z"/>
<path fill="#c9b8e8" d="M22 12h5v1h-5zM17 13h5v1h-5zM8 14h5v1h-5zM22 14h2v1h-2zM4 15h4v1h-4zM17 15h5v1h-5zM22 16h5v1h-5zM4 17h4v1h-4zM17 17h5v1h-5zM22 18h3v1h-3zM4 19h4v1h-4zM17 19h5v1h-5zM8 21h4v1h-4zM4 22h4v1h-4z"/>
<path fill="#f6eefb" d="M22 20h6v1h-6zM16 21h6v1h-6zM8 22h7v1h-7zM3 23h5v1h-5z"/>
<path fill="#ff8fbf" d="M22 22h6v1h-6zM16 23h6v1h-6zM8 24h7v1h-7zM4 25h4v1h-4z"/>
<path fill="#d9669c" d="M22 23h6v1h-6zM16 24h6v1h-6zM8 25h7v1h-7zM3 26h5v1h-5z"/>
<path fill="#76b98c" d="M29 24h1v1h-1zM24 25h5v1h-5zM16 26h3v1h-3zM9 27h7v1h-7zM5 28h4v1h-4zM23 28h1v1h-1zM22 29h1v1h-1zM20 30h2v1h-2z"/>
<path fill="#ffc2dc" d="M3 25h1v1h-1z"/>
<path fill="#e8505b" d="M20 26h2v1h-2zM20 27h1v1h-1zM20 28h1v1h-1z"/>
<path fill="#b83a4b" d="M21 27h1v1h-1z"/>
<path fill="#f7b8d4" d="M2 28h1v1h-1zM4 28h1v1h-1zM3 29h1v1h-1z"/>
</svg>
